<?xml version="1.0" standalone="no"?>
<!DOCTYPE svg PUBLIC "-//W3C//DTD SVG 1.1//EN" "http://www.w3.org/Graphics/SVG/1.1/DTD/svg11.dtd" >
<svg xmlns="http://www.w3.org/2000/svg">
<metadata>Generated by IcoMoon</metadata>
<defs>
<font id="ICBA" horiz-adv-x="1024">
<font-face units-per-em="1024" ascent="960" descent="-64" />
<missing-glyph horiz-adv-x="1024" />
<glyph unicode="&#x20;" horiz-adv-x="512" d="" />
<glyph unicode="&#xe900;" glyph-name="youtube" horiz-adv-x="1479" d="M597.333 234.667l369.067 213.333-369.067 213.333v-426.667zM1419.378 791.467c9.244-33.422 15.644-78.222 19.911-135.111 4.978-56.889 7.111-105.956 7.111-148.622l4.267-59.733c0-155.733-11.378-270.222-31.289-343.467-17.778-64-59.022-105.244-123.022-123.022-33.422-9.244-94.578-15.644-188.444-19.911-92.444-4.978-177.067-7.111-255.289-7.111l-113.067-4.267c-297.956 0-483.556 11.378-556.8 31.289-64 17.778-105.244 59.022-123.022 123.022-9.244 33.422-15.644 78.222-19.911 135.111-4.978 56.889-7.111 105.956-7.111 148.622l-4.267 59.733c0 155.733 11.378 270.222 31.289 343.467 17.778 64 59.022 105.244 123.022 123.022 33.422 9.244 94.578 15.644 188.444 19.911 92.444 4.978 177.067 7.111 255.289 7.111l113.067 4.267c297.956 0 483.556-11.378 556.8-31.289 64-17.778 105.244-59.022 123.022-123.022z" />
<glyph unicode="&#xe901;" glyph-name="badge-1" d="M121.6 903c-16.8-6.2-29.6-22-32.6-40.4-1.8-11.2 3-27.4 11.2-37.4 17.2-20.6 52-22.8 71.4-4.6 13.4 12.4 18.4 37.2 11.4 55-9.2 22.8-38.6 35.8-61.4 27.4zM245.8 873c-11-6-12.4-23.2-2.4-31 11-8.6 28.8-2.8 31.6 10.2 3.6 16.6-13.8 29.2-29.2 20.8zM757.8 873c-11-6-12.4-23.2-2.4-31 11-8.6 28.8-2.8 31.6 10.2 3.6 16.6-13.8 29.2-29.2 20.8zM899 862.2c-22.4-10-29.4-38-14.8-58.2 22-30.4 70-14.6 70 23 0 28.8-28.8 47.2-55.2 35.2zM400 853.2c-43-9.8-80-41-101-85.4-6.8-14.6-15-42.2-15-50.8 0-2.8-2.8-6.6-7.4-10.2-4.2-3.2-14.4-11.8-22.6-19l-15.2-13.2-7.6 15.4c-4 8.4-11.4 20.4-16.4 26.6-12.4 15.8-15.2 15.4-34.8-4-12.2-12.2-17.2-19.2-23.6-32.6-17.4-36.2-19-77.6-4.6-118.8l4.2-11.8-14.8-44.8-12.2 9.8c-22 18-67.6 36.6-77 31.6-6-3.2-9-16.8-9-42 0.2-19.8 1-25.2 5.8-39 11.2-32.6 35.8-63.2 65.6-81.8l14.8-9 2.4-20.4c1.2-11.2 2-20.8 1.6-21.2s-8.4 0.2-17.6 1.4c-26 3.2-69.2-2.8-77.2-10.6-8-8 8.8-44.6 30.4-66.4 24.2-24.4 54.8-39 92.4-43.6l18.4-2.4 12.8-19c6.8-10.4 13.4-20 14.2-21.4 1-1.8-2.4-4.4-11-8.8-17.2-8.6-35-21-38.8-26.8-4.4-6.8-2.4-11.2 12.4-26 16.2-16.2 41.8-29.4 66.8-34.2 19.6-3.8 49.6-2.8 69 2.4 27.2 7.2 69.8 32 72.2 42.2 1.4 5.6-1.6 10.6-14.6 23.4-27.4 27-70 40.6-110.8 35.4-9.8-1.2-19-2.8-20.4-3.4-1.8-0.6-7.2 5.4-15.6 17.2-7 10-13 18.8-13.4 19.6-0.2 0.8 6.8 3 15.6 5 19.6 4.4 22.8 7.2 21.2 18.2-1.8 12-15.6 38.6-26.2 50.8-10.8 12-29 25.4-45.4 33.6l-11.4 5.4-3 17.2c-4.8 25.6-5.4 24.2 9.8 20.6 15-3.6 16.6-2.8 20.8 9.6 9.6 28.6 1 74.8-19.6 104.8-3.4 4.8-6.2 10.6-6.2 12.6 0.2 2 2.6 11.2 5.6 20.4l5.4 16.6 6.6-9.2c12.2-17 17-16.4 37.6 5 27.6 29.2 39.6 67.4 34.6 111.4l-2 19 6.6 7c3.6 3.8 14.4 13.4 23.8 21.4l17.2 14.4 21.8 1c16.8 1 25.2 2.4 36.8 6.6 52.2 19.2 89.6 66.6 100 126.8 3 17.4 1.8 21.6-7.6 24-9.8 2.8-30.6 2.4-44.4-0.6zM578.6 854c-8.2-2.6-9.6-7.6-6.6-24.2 9.6-55.8 41.6-99.6 89-122 18.2-8.4 33.4-11.8 54.2-11.8h14.6l17.6-14.8c9.6-8 20.6-17.8 24.2-21.8l6.8-7-2.2-18.2c-5.4-43.4 7-82.8 34.6-112 20.6-21.4 25.4-22 37.6-5l6.6 9.2 5.4-16.6c2.8-9.2 5.4-18.4 5.4-20.4 0.2-2-2.6-7.8-6-12.6-20.6-30-29.2-76.2-19.6-104.8 4.2-12.4 5.8-13.2 20.8-9.6 15.2 3.6 14.6 5 9.8-20.6l-3-17.2-11.4-5.4c-16.4-8.2-34.6-21.6-45.4-33.6-10.6-12.2-24.4-38.8-26.2-50.8-1.6-11 1.6-13.8 21.2-18.2 8.8-2 15.8-4.2 15.6-5-0.4-0.8-6.4-9.6-13.4-19.6-8.4-11.8-13.8-17.8-15.6-17.2-1.4 0.6-10.6 2.2-20.4 3.4-41.6 5.4-84-8.6-111.6-36.4-13.4-13.6-15.4-16.8-13.8-22.6 2.4-10 45.2-34.8 72.2-42 19.4-5.2 49.4-6.2 69-2.4 25 4.8 50 17.6 66.6 34.2 15 14.8 17 19.2 12.6 26-3.8 5.8-22 18.4-39 27-8 4.2-11.8 7-10.8 8.6 1 1.4 7.4 11 14.2 21.4l12.8 19 18.4 2.4c52.2 6.4 95.2 34.6 115 74.8 4.4 9.2 8.8 20.6 9.4 25.2 1 7.2 0.6 8.6-3.4 11.2-11.6 7.6-50.8 12.4-75.6 9.4-9.2-1.2-17-1.8-17.4-1.4s0.4 10 1.6 21.2l2.4 20.4 15.2 9.4c29.6 18.4 54 48.8 65.2 81.4 4.8 13.8 5.6 19.2 5.8 39 0 25.2-3 38.8-9 42-9.4 5-55-13.6-77-31.6l-12.2-9.8-14.8 44.8 4.2 11.8c14.4 41.2 12.8 82.6-4.6 118.8-6.4 13.4-11.4 20.4-23.6 32.6-19.6 19.4-22.4 19.8-34.8 4-5-6.2-12.4-18.2-16.4-26.6l-7.6-15.4-15.2 13.2c-8.2 7.2-18.4 15.8-22.4 19-4.8 3.6-7.6 7.4-7.6 10.2 0 8.6-8.2 36.2-15 50.8-24.8 52-70.8 85.4-121 87.4-10.4 0.4-22-0.2-25.4-1.2zM88.6 735.6c-2.4-1.2-5.8-5.2-7.6-9-2.6-5.6-2.8-8-1-13.6 4.6-14.2 21.4-17.8 32.2-7.2 15.8 15.8-3 39.8-23.6 29.8zM920.6 698.4c-6.8-1-14.6-11.6-14.6-19.8 0-9.6 9-18.6 18.6-18.6 8.6 0 18.4 7.6 20 15.4 1 6-2.6 17.2-6.4 19.6-4 2.4-13 4.2-17.6 3.4zM482.2 668c-25.2-3.2-52-11.4-77.2-23.8-61.2-30.2-104.8-79.4-126-142.6-6-18-13-52.2-13-64 0-3.4 3.4-3.6 44.6-3.6 48.2 0 53.4-1 53.4-10.8 0-8.8-2.2-9.2-51.6-9.2h-47l1.4-12.4c3.6-33.2 11.4-60 26.2-89.6 22.4-44.4 55.8-78.6 102.6-105.2 8.4-4.8 16.4-8.8 17.8-8.8 1.8 0 30.6 83.4 30.6 88.6 0 0.6-18.8 14.6-41.8 31.4-23.2 16.6-43 31.6-44.4 33.2-1.8 2.2-2 4.6-0.6 8.4l1.8 5.4 111.4 2 17.4 52 17.2 52h14l17.2-52 17.4-52 111.4-2 1.8-5.4c1.4-3.8 1.2-6.2-0.6-8.4-1.4-1.6-21.4-16.6-44.4-33.2-23-16.8-41.8-30.8-41.8-31.4 0-5.2 28.8-88.6 30.6-88.6 1.4 0 9.4 4 17.8 8.8 74.6 42.4 120 110.8 128.6 193.8l1.4 13.4h-46.8c-49.4 0-51.6 0.4-51.6 9.2 0 9.8 5.2 10.8 53.4 10.8 41.2 0 44.6 0.2 44.6 3.6 0 11.8-7 46-13 64-28 83.4-98.6 145.4-185.4 163.2-19.6 4-58 5.6-77.4 3.2zM520 606.2c1.2-2.4 2-20.6 2-45.4 0-35.8-0.4-42-3.4-45.2-4-4.4-8.2-4.6-13-0.2-3.2 3-3.6 7-3.6 45 0 25 0.8 43.4 2 45.8 1.4 2.4 4.2 3.8 8 3.8s6.6-1.4 8-3.8zM449.2 539.6c13-12.4 16-19.6 10.4-25.2-4.8-4.8-10.6-2.2-23 10-13 13-15.2 18.6-9.4 24.4 5.2 5.2 8.6 3.8 22-9.2zM596.8 548.8c5.8-5.6 3.6-11.2-9.2-24.2-12.4-12.6-18.4-15-23.2-10.2-5.6 5.6-2.6 12.8 10.4 25.2 13.4 13 16.8 14.4 22 9.2zM498.4 389.2c-6.8-21.4-13.6-39.8-15-40.6-1.2-0.8-21-2-43.8-2.6l-41.2-1 32.8-23.8c18-13.2 33.2-25.4 33.8-27.4s-4.2-20.4-11-41c-6.6-20.8-11.8-38.2-11.6-39 0.4-1 15.4 9.2 33.6 22.2 18 13.2 34.2 24 36 24s18-10.8 36-24c18.2-13 33.2-23.2 33.6-22.2 0.2 0.8-5 18.2-11.6 39-6.8 20.6-11.8 39-11 41 0.6 1.8 15.8 14.2 34 27.4l33 23.8-41.4 1c-23 0.6-42.8 1.8-44 2.6-1.4 0.8-8.2 19.2-15 40.6-6.8 21.2-13 38.8-13.6 38.8s-6.8-17.6-13.6-38.8zM481 215.6c-16.4-12-31.8-23.2-33.8-24.8-2.2-1.4-3.4-3.2-2.8-3.8 3.6-3.6 44.2-9 67.6-9 29.6 0 72.4 6.8 67.8 10.8-3 2.6-67.6 49.2-68.2 49-0.2 0-14-10-30.6-22.2zM918.8 166c-6-2.4-12.8-11.6-12.8-17.4 0-11.2 9.6-20.6 21-20.6 6.4 0 16.2 8.6 17.6 15.4 1.4 8-3.2 17.8-10.4 21.4-6.6 3.6-9.2 3.8-15.4 1.2zM90 145.4c-7.6-3.6-12.6-15.4-10-22.6 4.8-12.4 15-17.4 26.2-12.8 14.4 6 15.4 28 1.6 35.2-6.8 3.4-11.2 3.6-17.8 0.2zM439.2 62.8c-11.6-11.8-2.8-32.8 13.8-32.8 5.4 0 8.8 1.6 13.2 5.8 7.6 7.8 7.8 17.4 0.6 26-7 8.4-19.6 8.8-27.6 1zM581.6 26.8c-15.4-8.2-11.8-32.8 5.2-36 7.6-1.4 17.8 3 21.2 9 3 6 2.4 16.6-1.6 21.4-7 8.8-15.6 10.8-24.8 5.6z" />
<glyph unicode="&#xe902;" glyph-name="instagram" d="M305.231 940.308h413.538c157.538 0 285.538-128 285.538-285.538v-413.538c0-75.729-30.082-148.358-83.633-201.905-53.547-53.551-126.176-83.633-201.905-83.633h-413.538c-157.538 0-285.538 128-285.538 285.538v413.538c0 75.73 30.084 148.358 83.632 201.906s126.176 83.632 201.906 83.632zM295.385 841.846c-47.004 0-92.084-18.673-125.321-51.91s-51.91-78.317-51.91-125.321v-433.231c0-97.969 79.262-177.231 177.231-177.231h433.231c47.006 0 92.085 18.672 125.322 51.909s51.909 78.316 51.909 125.322v433.231c0 97.969-79.262 177.231-177.231 177.231h-433.231zM770.462 768c16.321 0 31.972-6.483 43.516-18.024 11.54-11.54 18.022-27.193 18.022-43.514s-6.483-31.974-18.022-43.514c-11.544-11.541-27.195-18.024-43.516-18.024s-31.972 6.483-43.516 18.024c-11.54 11.54-18.022 27.193-18.022 43.514s6.483 31.974 18.022 43.514c11.544 11.541 27.195 18.024 43.516 18.024zM512 694.154c65.284 0 127.894-25.934 174.056-72.097s72.097-108.773 72.097-174.057c0-65.284-25.935-127.894-72.097-174.056s-108.772-72.097-174.056-72.097c-65.284 0-127.894 25.935-174.057 72.097s-72.097 108.772-72.097 174.056c0 65.284 25.934 127.894 72.097 174.057s108.773 72.097 174.057 72.097zM512 595.692c-39.172 0-76.737-15.56-104.436-43.256-27.696-27.699-43.256-65.264-43.256-104.436s15.56-76.737 43.256-104.436c27.699-27.695 65.264-43.256 104.436-43.256s76.737 15.561 104.436 43.256c27.695 27.699 43.256 65.264 43.256 104.436s-15.561 76.737-43.256 104.436c-27.699 27.696-65.264 43.256-104.436 43.256z" />
<glyph unicode="&#xe903;" glyph-name="whatsapp" d="M513.969 940.31c-268.8 0-487.877-219.077-487.877-487.879 0-86.154 22.646-169.846 64.985-243.692l-68.923-253.046 258.462 67.938c71.385-38.892 151.631-59.569 233.354-59.569 268.8 0 487.877 219.077 487.877 487.877 0 130.464-50.708 253.048-142.769 345.11-45.135 45.591-98.895 81.739-158.149 106.336-59.25 24.597-122.805 37.149-186.959 36.926zM514.462 858.094c108.308 0 209.723-42.338 286.523-119.138 37.691-37.679 67.572-82.428 87.934-131.68 20.362-49.254 30.799-102.042 30.712-155.337 0-223.508-182.154-405.169-405.662-405.169-72.862 0-144.246 19.2-206.277 56.615l-14.769 8.369-153.6-40.369 40.862 149.662-9.846 15.754c-40.667 64.559-62.178 139.335-62.031 215.631 0.492 223.51 182.154 405.664 406.154 405.664zM341.169 677.91c-7.877 0-21.169-2.954-32.492-15.262-10.831-12.308-42.831-42.338-42.831-101.91 0-60.062 43.815-117.662 49.231-126.031 6.892-8.369 86.646-131.446 209.231-183.631 29.046-13.292 51.692-20.677 69.415-26.092 29.046-9.354 55.631-7.877 76.8-4.923 23.631 3.446 71.877 29.538 82.215 58.092s10.338 52.677 7.385 58.092c-3.446 4.923-11.323 7.877-23.631 13.292-12.308 6.892-72.369 36.431-83.2 40.369-11.323 3.938-18.215 5.908-27.569-5.908-7.877-12.308-31.508-39.877-38.4-47.754-7.385-8.369-14.277-9.354-26.092-3.446-12.8 6.4-52.185 19.2-98.462 60.554-36.431 32.492-60.554 72.369-67.938 84.677-5.908 11.815-0.492 19.2 5.415 24.615 5.415 5.415 13.292 14.277 18.215 21.662 6.4 6.892 8.369 12.308 12.308 20.185 3.938 8.369 1.969 15.262-0.985 21.169-2.954 5.417-27.569 66.464-37.908 90.587-9.846 23.631-19.692 20.677-27.569 21.169-6.892 0-14.769 0.492-23.138 0.492z" />
<glyph unicode="&#xe904;" glyph-name="mail" horiz-adv-x="1243" d="M1109.336 82.286h-121.907v533.333l-365.714-228.573-365.713 228.573v-533.333h-121.905v731.429h73.143l414.475-259.046 414.479 259.046h73.143zM1109.336 935.619h-975.239c-67.657 0-121.905-54.248-121.905-121.905v-731.429c0-32.333 12.843-63.338 35.705-86.199s53.869-35.705 86.2-35.705h975.239c32.329 0 63.338 12.844 86.199 35.705s35.705 53.866 35.705 86.199v731.429c0 32.331-12.844 63.338-35.705 86.2s-53.87 35.705-86.199 35.705z" />
<glyph unicode="&#xe905;" glyph-name="location" horiz-adv-x="731" d="M365.714 473.398c-33.677 0-65.977 13.378-89.793 37.191-23.813 23.815-37.192 56.115-37.192 89.793s13.379 65.977 37.192 89.79c23.815 23.815 56.115 37.194 89.793 37.194s65.977-13.379 89.79-37.194c23.815-23.813 37.193-56.113 37.193-89.79 0-16.677-3.284-33.187-9.665-48.596-6.383-15.406-15.735-29.403-27.529-41.196-11.791-11.791-25.79-21.143-41.196-27.526-15.406-6.38-31.917-9.665-48.594-9.665zM365.714 955.936c-94.298 0-184.736-37.46-251.416-104.14s-104.14-157.117-104.14-251.416c0-266.667 355.556-660.317 355.556-660.317s355.555 393.65 355.555 660.317c0 94.298-37.459 184.736-104.138 251.416s-157.118 104.14-251.416 104.14z" />
<glyph unicode="&#xe906;" glyph-name="call" d="M205.938 516.837c81.92-160.997 213.902-292.41 374.899-374.9l125.153 125.157c15.36 15.36 38.117 20.48 58.027 13.653 63.717-21.050 132.553-32.427 203.093-32.427 31.29 0 56.89-25.6 56.89-56.89v-198.54c0-31.29-25.6-56.89-56.89-56.89-534.187 0-967.11 432.923-967.11 967.111 0 31.289 25.6 56.889 56.889 56.889h199.111c31.289 0 56.889-25.6 56.889-56.889 0-71.111 11.378-139.378 32.428-203.093 6.257-19.911 1.707-42.098-14.223-58.027l-125.156-125.154z" />
<glyph unicode="&#xe907;" glyph-name="users" horiz-adv-x="1652" d="M825.806 944.86c63.881 0 125.143-25.376 170.314-70.546 45.168-45.17 70.547-106.434 70.547-170.314s-25.379-125.143-70.547-170.314c-45.172-45.168-106.433-70.547-170.314-70.547s-125.143 25.379-170.314 70.547c-45.168 45.172-70.547 106.434-70.547 170.314s25.379 125.144 70.547 170.314c45.172 45.17 106.433 70.546 170.314 70.546zM344.087 772.817c38.535 0 74.323-10.323 105.29-28.903-10.323-98.409 18.581-196.13 77.761-272.517-34.406-66.065-103.226-111.484-183.052-111.484-54.756 0-107.267 21.752-145.984 60.469s-60.468 91.228-60.468 145.983c0 54.754 21.751 107.267 60.468 145.985s91.229 60.468 145.984 60.468zM1307.526 772.817c54.754 0 107.266-21.751 145.986-60.468 38.717-38.717 60.466-91.23 60.466-145.985s-21.748-107.266-60.466-145.983c-38.72-38.717-91.232-60.469-145.986-60.469-79.826 0-148.645 45.419-183.052 111.484 60 77.461 87.849 175.059 77.761 272.517 30.968 18.581 66.755 28.903 105.29 28.903zM378.494 67.442c0 142.452 200.258 258.065 447.313 258.065s447.313-115.613 447.313-258.065v-120.432h-894.626v120.432zM0-52.99v103.226c0 95.658 130.065 176.174 306.236 199.571-40.602-46.797-65.376-111.484-65.376-182.364v-120.432h-240.86zM1651.613-52.99h-240.861v120.432c0 70.881-24.774 135.568-65.374 182.364 176.171-23.397 306.235-103.913 306.235-199.571v-103.226z" />
<glyph unicode="&#xe908;" glyph-name="left-arrow" horiz-adv-x="1418" d="M516.923-38.4v393.846h878.277l2.954 197.908h-881.231v392.861l-492.308-492.307 492.308-492.308z" />
<glyph unicode="&#xe909;" glyph-name="left-arrow-c" d="M104.127 448c0-224 183.873-407.874 407.873-407.874s407.874 183.874 407.874 407.874c0 224-183.874 407.873-407.874 407.873s-407.873-183.873-407.873-407.873zM4.064 448c0 281.396 226.54 507.936 507.936 507.936s507.936-226.54 507.936-507.936c0-281.398-226.538-507.938-507.936-507.938s-507.936 226.54-507.936 507.938zM433.779 498.793v152.381l-201.144-203.174 201.144-203.176v152.381h357.586v101.588z" />
<glyph unicode="&#xe90a;" glyph-name="login" horiz-adv-x="902" d="M612.418 423.773c6.422 6.427 10.028 15.143 10.028 24.227 0 9.087-3.606 17.801-10.028 24.23l-114.286 114.286c-3.138 3.367-6.922 6.068-11.127 7.943s-8.748 2.882-13.351 2.962c-4.603 0.083-9.175-0.766-13.444-2.489s-8.148-4.291-11.403-7.546c-3.257-3.257-5.825-7.134-7.548-11.403s-2.57-8.843-2.489-13.446c0.080-4.603 1.090-9.143 2.962-13.349 1.875-4.206 4.576-7.992 7.946-11.13l55.769-55.771h-328.684c-9.093 0-17.814-3.613-24.244-10.043s-10.042-15.15-10.042-24.244c0-9.092 3.612-17.813 10.042-24.244 6.43-6.429 15.151-10.040 24.244-10.040h328.684l-55.769-55.771c-3.369-3.14-6.071-6.924-7.946-11.13-1.872-4.206-2.882-8.745-2.962-13.351-0.080-4.603 0.766-9.175 2.489-13.444s4.291-8.148 7.548-11.403c3.255-3.257 7.134-5.822 11.403-7.548 4.269-1.724 8.841-2.57 13.444-2.489s9.145 1.090 13.351 2.962c4.206 1.875 7.99 4.576 11.127 7.946l114.286 114.286zM539.963 939.429v-0.046c-62.493 0-112.916 0-152.549-5.349-41.143-5.532-75.796-17.326-103.314-44.846-18.239-18.286-29.623-39.726-36.801-64.091-43.474-0.046-79.725-0.549-109.074-4.48-34.971-4.708-65.189-14.857-89.371-39.040s-34.331-54.446-39.040-89.326c-4.48-33.463-4.48-75.747-4.48-127.542v-233.418c0-51.839 0-94.171 4.48-127.542 4.709-34.972 14.857-65.19 39.040-89.373 24.183-24.181 54.446-34.331 89.371-39.039 29.349-3.933 65.6-4.435 109.074-4.481 7.178-24.364 18.515-45.804 36.801-64.090 27.519-27.521 62.171-39.314 103.314-44.893 39.634-5.303 90.056-5.303 152.549-5.303h50.742c62.493 0 112.916 0 152.549 5.303 41.143 5.578 75.796 17.371 103.314 44.893 27.519 27.519 39.314 62.171 44.893 103.314 5.3 39.634 5.3 90.056 5.3 152.549v370.742c0 62.491 0 112.915-5.3 152.549-5.578 41.143-17.374 75.794-44.893 103.314-27.519 27.474-62.171 39.36-103.314 44.846-39.634 5.348-90.056 5.348-152.549 5.348h-50.742zM233.905 262.629c0-48.001 0-88.825 2.423-123.156-38.171 0.137-66.514 0.824-88.96 3.84-27.337 3.657-40.685 10.24-50.011 19.566-9.325 9.279-15.908 22.674-19.565 50.013-3.794 28.297-3.886 65.965-3.886 120.822v228.571c0 54.857 0.091 92.526 3.886 120.822 3.657 27.338 10.24 40.686 19.565 50.012 9.28 9.326 22.674 15.909 50.011 19.566 22.446 3.017 50.789 3.657 88.96 3.84-2.423-34.24-2.423-75.154-2.423-123.155v-2.514c0-9.094 3.612-17.813 10.041-24.244 6.432-6.429 15.15-10.043 24.244-10.043s17.813 3.613 24.244 10.043c6.429 6.432 10.040 15.15 10.040 24.244 0 65.599 0.093 111.406 4.71 145.92 4.525 33.554 12.8 51.291 25.417 63.954 12.663 12.663 30.401 20.892 64 25.417 34.514 4.617 80.274 4.709 145.874 4.709h45.714c65.599 0 111.36-0.091 145.92-4.709 33.553-4.526 51.29-12.8 63.954-25.417 12.663-12.663 20.892-30.4 25.417-64 4.618-34.469 4.71-80.275 4.71-145.874v-365.714c0-65.599-0.093-111.36-4.71-145.92-4.525-33.556-12.8-51.293-25.417-63.954-12.663-12.663-30.401-20.892-64-25.417-34.514-4.618-80.274-4.71-145.874-4.71h-45.714c-65.599 0-111.406 0.093-145.92 4.71-33.556 4.525-51.29 12.8-63.954 25.417-12.663 12.661-20.892 30.398-25.417 64-4.618 34.514-4.71 80.274-4.71 145.874 0 9.094-3.611 17.813-10.040 24.244-6.432 6.429-15.15 10.040-24.244 10.040s-17.813-3.611-24.244-10.040c-6.429-6.432-10.041-15.15-10.041-24.244v-2.514z" />
<glyph unicode="&#xe90b;" glyph-name="lock" d="M768 618.667h-42.667v85.333c0 117.76-95.573 213.333-213.333 213.333s-213.333-95.573-213.333-213.333v-85.333h-42.667c-46.933 0-85.333-38.4-85.333-85.333v-426.667c0-46.933 38.4-85.333 85.333-85.333h512c46.933 0 85.333 38.4 85.333 85.333v426.667c0 46.933-38.4 85.333-85.333 85.333zM512 234.667c-46.933 0-85.333 38.4-85.333 85.333s38.4 85.333 85.333 85.333c46.933 0 85.333-38.4 85.333-85.333s-38.4-85.333-85.333-85.333zM384 618.667v85.333c0 70.827 57.173 128 128 128s128-57.173 128-128v-85.333h-256z" />
<glyph unicode="&#xe90c;" glyph-name="email" d="M853.333 618.667l-341.333-213.333-341.333 213.333v85.333l341.333-213.333 341.333 213.333zM853.333 789.333h-682.667c-47.36 0-85.333-37.973-85.333-85.333v-512c0-22.63 8.99-44.336 24.993-60.341 16.003-16.002 37.708-24.992 60.34-24.992h682.667c22.63 0 44.336 8.991 60.341 24.992 16.002 16.005 24.992 37.711 24.992 60.341v512c0 22.632-8.991 44.337-24.992 60.34-16.005 16.003-37.711 24.993-60.341 24.993z" />
<glyph unicode="&#xe90d;" glyph-name="calendar" d="M298.667 533.333h213.333v-213.333h-213.333zM810.667 149.333h-597.333v469.333h597.333zM810.667 832h-42.667v85.333h-85.333v-85.333h-341.333v85.333h-85.333v-85.333h-42.667c-22.632 0-44.337-8.99-60.34-24.993s-24.993-37.708-24.993-60.34v-597.333c0-22.63 8.99-44.336 24.993-60.341 16.003-16.002 37.708-24.992 60.34-24.992h597.333c22.63 0 44.336 8.991 60.341 24.992 16.002 16.005 24.992 37.711 24.992 60.341v597.333c0 22.632-8.991 44.337-24.992 60.34-16.005 16.003-37.711 24.993-60.341 24.993z" />
<glyph unicode="&#xe90e;" glyph-name="user" d="M512 533.333c94.256 0 170.667 76.411 170.667 170.667s-76.411 170.667-170.667 170.667c-94.256 0-170.667-76.41-170.667-170.667s76.411-170.667 170.667-170.667zM853.333 213.333c0-106.025 0-192-341.333-192s-341.333 85.975-341.333 192c0 106.025 152.832 192 341.333 192s341.333-85.975 341.333-192z" />
<glyph unicode="&#xe90f;" glyph-name="Twitter-X" horiz-adv-x="1399" d="M282.022 840.718l323.998-433.216-326.044-352.223h73.379l285.451 308.376 230.637-308.376h249.713l-342.228 457.584 303.479 327.855h-73.379l-262.886-284.009-212.407 284.009h-249.713zM389.932 786.667h114.719l506.579-677.328h-114.719l-506.579 677.328z" />
<glyph unicode="&#xe910;" glyph-name="cash" d="M560.6 935.2c-9.4-3-20.8-9.8-24.6-14.2-2.2-2.6 3.4-3 46.2-3 29 0 47.8 0.8 46.8 1.8-1.2 1-8.6 5.2-16.6 9.2-17 8.6-37.2 11-51.8 6.2zM273.4 891.8c-18.6-4.4-35-17.6-43.6-35l-4.8-9.8-0.6-198-0.4-198 31.4-25.6 31.6-25.6 2 385.2 5.8 10.6c7.2 13 16.4 21.4 31.2 28.2l11 5.2h240l11-5.2c6-2.8 14.4-8.8 18.8-13 4.2-4.4 10.2-12.8 13-18.8l5.2-11 2-470.8 31.4 25.4 31.6 25.4-0.6 242-0.4 242-5.6 11.2c-6.4 13.2-19.8 26.4-33 32.4-9.4 4.4-9.4 4.4-189.4 4.8-101 0.2-183.4-0.6-187.6-1.6zM702.4 873.6c7-10.6 11.6-29 11.6-46.2v-16.6l57.2-33c31.4-18 61-36.2 66-40.4 11.6-10.2 22.4-32 24.2-49 2.2-23.4 0.4-27.2-76.6-160.6l-70.8-122.8v-11.8c0-9 0.6-11.2 2.6-9.8 1.2 1 20.8 16.8 43.4 35.2l41 33.2 64.6 112c35.4 61.4 66 116 67.8 121.2 7.2 21.2 0.2 49-16.6 65.6-4.6 4.4-48.2 31-110.4 67-56.6 32.6-104 59.8-105.2 60.2-1 0.4-0.6-1.4 1.2-4.2zM445.8 786c-15.2-4.6-25.8-19-25.8-35.2 0-26.6 25.6-43.6 51.2-33.8 16.6 6.2 26.4 27 20.8 44-6.4 19.4-27.2 30.8-46.2 25zM130 638.4c-35.8-29.4-65.2-54.2-65.4-55.4-0.2-1.8 129.8-109 132.2-109 0.8 0 1.2 49 1.2 109s-0.6 109-1.4 108.8c-1 0-30.8-24.2-66.6-53.4zM420.4 670c-62.8-16.4-106.4-73-106.6-138 0-40.8 13.4-73.2 41.2-101 18.2-18.2 35-28.8 58-36.4 14.4-5 18.8-5.4 44-5.4 25.4 0 29.4 0.4 44 5.6 45.4 15.8 76.4 46.6 92.4 92.4 5 14.4 5.4 18.4 5.4 43.8 0.2 26.2-0.2 29-6.2 45.6-7.2 20.6-16 35.6-29.2 50.6-18.2 20.2-47.2 37.4-74 43.8-17.6 4.2-51 3.6-69-1zM535.6 589.6c1.8-1.8 2.4-17.6 2.4-58.8 0-59.6-0.4-62.2-9.4-60.4-2.8 0.6-3.8 3.2-4.6 13.6-0.6 7.2-1.8 14.2-2.6 15.6-1.2 1.6-8.2 2.4-23.6 2.4-24.2 0-33.6 3-41.4 13-5.2 6.6-9.2 18-7.8 23 0.4 2 0.2 4.8-0.8 6.2-2.2 3.8-20-9-44.2-31.8-17.2-16.2-20.2-18.2-23.6-16.4-7.8 4.2-4.8 10.6 12.8 27.6 20.6 19.8 43 36.6 67.2 50.4 16 9.2 19 10.2 23.2 8.2 7.2-3.2 6.2-10-2.4-17-10.2-8-14.8-16.6-14.8-27.4 0-7.2 1-10.2 5.2-14 4.6-4.4 7.2-4.8 26.4-5.4 18.6-0.6 21.4-0.4 23.8 2.8 1.8 2.6 2.6 12.4 2.6 35.8 0 17.8 0.6 33 1.4 33.6 2 2.2 7.6 1.6 10.2-1zM894.8 565.4c-15.2-26.6-30.4-52.6-33.4-58-3.2-5.4-4.6-9.2-3-8.2 2.4 1.4 96 77 101 81.6 2 1.8-1.4 5.6-14.8 16.2-9.4 7.8-18.2 14.6-19.6 15.4-1.4 1-11.8-15.2-30.2-47zM54.4 304.6c0.6-233 1-252.4 4.2-263.4 12-40.4 45.4-72 85.2-80.4 20-4.2 716.8-4.2 736.8 0.2 39 8.2 72.6 40 84.6 80 3.4 11.2 3.6 28.6 4.2 263.6 0.4 138.2 0.2 251.4-0.4 251.4s-81-65-178.6-144.6c-97.6-79.4-182.8-148-189.6-152.6-53.4-35.8-129.6-34.8-181.4 2.4-5.4 4-89.4 72-186.6 151-97 79.2-177 143.8-177.8 143.8-0.6 0-0.8-113.2-0.6-251.4zM441 345.2c-13-6-21-18.8-21-33.6 0-30.8 36.6-48 60.2-28.2 12.8 11 17 28.6 10 43.8-5.8 12.8-16.2 19.6-31 20.2-7.4 0.4-14.6-0.4-18.2-2.2z" />
<glyph unicode="&#xe911;" glyph-name="badge" d="M482.4 956c-18.6-5-36.2-14.4-49.4-26.4l-10.4-9.4-14.8 3c-57.8 12.4-118-22.6-136.4-78.8l-4.4-14-11-3.4c-38.8-12.2-70.8-45.4-80.8-84.2-3.8-14.6-4-45.6-0.4-58.8l2.4-9-10.4-11.6c-19.2-21.6-28.8-47.6-28.8-78.4s9.6-56.8 28.8-78.4l10.4-11.6-2.4-9c-3.6-13.2-3.4-44.2 0.4-58.8 10-38.8 42-72 80.8-84.2l11-3.4 4.4-14c18.4-56.2 78.6-91.2 136.4-78.8l14.8 3 10.4-9.4c20-18.4 51.4-30.4 79-30.4s59 12 79 30.4l10.4 9.6 13.8-3c59-12.6 118.8 21.8 137.4 78.8l4.4 13.8 11 3.4c38.8 12.2 70.8 45.4 80.8 84.2 3.8 14.6 4 45.6 0.4 58.8l-2.4 9 10.4 11.6c19.2 21.6 28.8 47.6 28.8 78.4s-9.6 56.8-28.8 78.4l-10.4 11.6 2.4 9c3.6 13.2 3.4 44.2-0.4 58.8-10 38.8-42 72-80.8 84.2l-11 3.4-4.4 13.8c-18.6 57-78.4 91.4-137.4 78.8l-13.8-3-10.4 9.6c-28.2 25.8-70.8 36.2-108.6 26.4zM566 834.2c101.4-23.2 179.4-104.2 197-205 3.8-22.8 3.8-65.6 0-88.4-16-91.2-82.6-168.2-171-197.6-133-44.2-277 28.4-321.8 162-8.6 25.4-12.2 49.2-12.2 79.8 0 53.2 13.8 98.8 43.4 143.6 13.6 20.6 47.8 54.2 70.2 68.8 30.8 20.2 71.2 35.6 107 40.6 19.4 2.8 67.8 0.6 87.4-3.8zM477.6 777c-80.2-15.2-143.4-78.6-157.4-157.8-2.8-15.4-2.8-53 0-68.4 13.2-74.8 68.8-134.2 145.4-155.2 22.2-6.2 70.6-6.2 92.8 0 69.8 19.2 119.8 67.2 141 135.8 5 16.4 5.4 20.2 5.4 53.6s-0.4 37.2-5.4 53.6c-21.2 68.6-72 117.6-141 135.6-20.4 5.4-59.8 6.8-80.8 2.8zM551 714c34.2-10.6 65.6-37 80.6-68 11.2-22.6 14.4-36.6 14.4-61s-3.2-38.4-14.4-61c-6.4-13.4-11.6-20.4-24.4-33.2-28.4-28.2-56-39.8-95.2-39.8s-66.8 11.6-95.2 39.8c-26.6 26.6-38.8 56.2-38.8 94.2 0 24.2 3.4 38.4 14.2 60.6 13.6 28 41.8 54 69.4 64.4 29 11 62 12.6 89.4 4zM489.8 656.4c-20.4-6.8-35-19.4-45.4-39.2-5-9.2-5.4-12.2-5.4-32.2 0-20.2 0.4-22.8 5.4-32.4 7.2-13.6 15.6-22.8 27.2-30.2 37.6-24 87.4-10.4 106.8 29.2 6.2 12.6 6.6 14.6 6.6 34.4 0 20.2-0.2 21.6-6.8 33.6-13.2 24.4-35.2 38.2-63.2 39.6-10 0.6-17.2-0.2-25.2-2.8zM346 63.6c0-68.8 0.6-125.4 1.2-126.2 0.6-0.6 38.2 17.4 83.6 40l82.2 41.2 81.6-41c44.8-22.4 82-40.4 82.4-39.8 0.6 0.4 1 57 1 125.8v125l-6.4-1.6c-3.6-0.8-17.2-1.8-30.2-2.2-22.4-0.6-24.2-1-33.2-6.6-13.6-8.8-34.6-18-52-22.6-22.6-6.2-65-6.2-87.8 0-19 5.2-38.8 13.6-52.8 22.6-9.2 6-10.8 6.2-33.2 6.8-12.8 0.2-26.4 1.2-29.8 2l-6.6 1.6v-125z" />
<glyph unicode="&#xe912;" glyph-name="home" d="M1024 369.568l-512 397.44-512-397.44v162.048l512 397.44 512-397.44zM896 384v-384h-256v256h-256v-256h-256v384l384 288z" />
<glyph unicode="&#xe913;" glyph-name="CATERING" horiz-adv-x="1025" d="M0 380.156v14.014c12.279 29.293 38.808 20.272 59.594 22.029 31.050 222.582 156.431 358.269 371.555 414.113-4.988 10.997-7.895 23.845-7.895 37.373 0 31.091 15.356 58.596 38.897 75.344l0.284 0.192c14.096 10.478 31.843 16.774 51.060 16.774 18.15 0 34.988-5.616 48.872-15.205l-0.288 0.188c42.065-28.8 49.565-69.601 34.286-114.923 215.574-55.822 336.99-193.546 367.548-414.37 8.572 0 18.536 0.257 28.286 0 0.377 0.017 0.818 0.026 1.262 0.026 12.19 0 22.693-7.224 27.461-17.624l0.077-0.188c0.75-1.757 3-2.764 4.286-4.007v-14.014c-1.007-0.257-2.507-0.493-2.764-1.007-7.264-20.036-23.036-22.779-41.808-22.779q-470.942 0.386-941.627 0c-1.284-0.158-2.771-0.248-4.279-0.248-15.894 0-29.453 10.003-34.723 24.057l-0.084 0.256zM513.757 899.913c-16.402-0.12-29.666-13.384-29.786-29.775v-0.012c0.043-17.159 12.819-31.321 29.377-33.539l0.174-0.019c17.065 1.641 30.302 15.906 30.302 33.263 0 0.104 0 0.207-0.001 0.311v-0.016c-0.345 16.407-13.634 29.598-30.047 29.786h-0.018zM239.853-63.507c0 99.901 0.257 199.803-0.257 299.683-0.094 1.189-0.147 2.575-0.147 3.973 0 22.656 14.008 42.040 33.835 49.964l0.363 0.128c25.666 11.774 55.68 18.639 87.299 18.639 54.975 0 105.103-20.754 142.976-54.854l-0.193 0.171c11.065-11.391 26.527-18.459 43.64-18.459 1.648 0 3.28 0.066 4.895 0.194l-0.213-0.014c7.746 0.479 16.8 0.751 25.918 0.751s18.172-0.273 27.155-0.81l-1.236 0.059c0.028 0 0.060 0 0.093 0 28.436 0 52.194-20.032 57.931-46.755l0.070-0.389c0.851-3.732 1.338-8.017 1.338-12.416 0-23.336-13.719-43.468-33.532-52.77l-0.357-0.15c-9.398-3.845-20.292-6.183-31.702-6.427l-0.099-0.002c-29.036-1.007-57.858 0-86.873-0.493-0.068 0.001-0.149 0.001-0.229 0.001-16.214 0-29.358-13.144-29.358-29.358 0-4.101 0.841-8.005 2.359-11.55l-0.073 0.191c2.822-9.901 11.499-17.142 21.96-17.783l0.069-0.003c37.565 0 75.108-0.257 112.416 3 23.953 4.421 44.47 16.755 59.216 34.14l0.121 0.146q81.88 81.88 164.252 163.481c11.101 12.756 27.364 20.772 45.499 20.772 10.685 0 20.72-2.783 29.42-7.664l-0.303 0.156c18.59-10.086 31-29.455 31-51.724 0-14.259-5.088-27.329-13.548-37.494l0.077 0.095c-1.43-1.941-2.906-3.655-4.5-5.25v0c-61.351-61.094-121.93-122.937-184.524-182.767-34.335-31.722-79.092-52.62-128.594-57.026l-0.837-0.060c-3.257-0.257-6.429-1.243-9.772-1.757q-182.553 0.6-365.555 0.429zM83.873-63.486c-14.41 4.812-24.613 18.182-24.613 33.935 0 1.719 0.121 3.409 0.356 5.062l-0.022-0.19c0.493 74.615 0.257 149.231 0.257 223.825 0 27.536 10.264 37.565 38.058 37.801h81.88v-300.197c-31.822-0.236-63.858-0.236-95.916-0.236z" />
<glyph unicode="&#xe914;" glyph-name="OIL--LUBRICANTS" horiz-adv-x="1023" d="M853.476-64c-7.524 1.708-14.726 3.416-22.25 5.124-65.952 17.284-114.052 75.744-115.404 145.653l-0.002 0.151c0.787 24.627 6.662 47.697 16.601 68.449l-0.444-1.029c28.868 66.741 59.542 123.389 94.485 177.002l-2.76-4.516c12.672 20.542 26.359 40.715 39.7 61.258 1.708 2.747 3.762 5.124 6.509 8.886 15.049-23.266 29.775-45.17 43.854-67.767 32.825-49.234 63.629-105.788 89.339-165.065l2.733-7.075c7.178-18.465 11.541-37.992 17.449-57.149v-28.067c-0.88-1.258-1.487-2.769-1.702-4.403l-0.006-0.051c-9.59-64.531-58.29-115.421-120.861-128.164l-0.985-0.168-14.38-3.070zM729.922 845.702c26.013 26.359 50.64 51.333 74.945 75.637l111.229-112.244c-23.612-22.92-48.609-47.57-73.86-72.544 14.38-14.033 26.705-26.013 40.046-38.338-4.108-4.108-6.163-6.924-8.886-9.233q-237.737-237.737-475.728-475.474c-10.059-13.039-25.689-21.356-43.261-21.356-17.418 0-32.928 8.172-42.904 20.891l-0.090 0.118q-145.804 145.273-291.239 290.824c-12.184 9.96-19.9 24.989-19.9 41.821 0 9.927 2.684 19.228 7.366 27.215l-0.138-0.254c3.606 5.839 7.68 10.89 12.306 15.376l0.020 0.019q182.757 182.757 365.515 365.169c4.059 3.707 9.444 6.023 15.367 6.162l0.028 0.001c68.782 0.346 137.934 0.346 206.716 0.346 0.219 0.008 0.476 0.013 0.734 0.013 6.213 0 11.802-2.668 15.685-6.921l0.015-0.017 97.541-97.541c2.677-2.493 5.124-5.586 8.494-9.671zM352.774 623.591q111.921 112.429 222.111 223.473c-44.154 0-90.363 0.346-136.895-0.346-5.987-0.276-11.36-2.703-15.407-6.52l0.012 0.011c-46.163-45.17-91.725-91.032-137.587-136.549-2.308-2.308-4.455-4.801-5.816-6.163 25.666-25.32 49.971-49.971 73.583-73.929zM921.588 602.702c12.672-21.212 24.305-40.715 35.591-60.911 4.053-7.359 7.949-16.061 11.149-25.092l0.391-1.267c2.176-5.223 3.44-11.291 3.44-17.654 0-14.11-6.215-26.768-16.058-35.386l-0.054-0.047c-8.726-8.933-20.893-14.472-34.354-14.472-7.406 0-14.421 1.677-20.685 4.672l0.289-0.125c-18.216 7.32-30.892 24.734-31.136 45.14v0.030c-0.003 0.199-0.004 0.434-0.004 0.669 0 5.382 0.846 10.567 2.412 15.428l-0.099-0.356c14.165 34.164 30.634 63.574 50.046 90.738l-0.929-1.368z" />
<glyph unicode="&#xe915;" glyph-name="r-arrow" horiz-adv-x="626" d="M1.542 68.031l379.969 379.969-379.969 380.8 116.978 116.978 497.778-497.778-497.778-497.778-116.978 117.808z" />
<glyph unicode="&#xe91b;" glyph-name="close" d="M1024 899.661l-60.339 60.339-451.661-451.661-451.661 451.661-60.339-60.339 451.661-451.661-451.661-451.661 60.339-60.339 451.661 451.661 451.661-451.661 60.339 60.339-451.661 451.661z" />
<glyph unicode="&#xe923;" glyph-name="menu1" horiz-adv-x="1531" d="M824.597-64c-32.693 0-59.196 26.503-59.196 59.196v0c0 0.038 0 0.083 0 0.128 0 32.623 26.446 59.068 59.068 59.068 0.045 0 0.090 0 0.135 0h647.193c0.038 0 0.083 0 0.128 0 32.623 0 59.068-26.446 59.068-59.068 0-0.045 0-0.090 0-0.135v0.007c0-32.693-26.503-59.196-59.196-59.196v0zM59.132 395.279c-0.019 0-0.041 0-0.064 0-32.658 0-59.132 26.474-59.132 59.132v0c0 32.693 26.503 59.196 59.196 59.196v0h1412.665c32.693 0 59.196-26.503 59.196-59.196v0c0-32.658-26.474-59.132-59.132-59.132-0.022 0-0.045 0-0.067 0h0.003zM59.132 841.8c-32.693 0-59.196 26.503-59.196 59.196v0c0 32.658 26.474 59.132 59.132 59.132 0.022 0 0.045 0 0.067 0h1412.661c0.019 0 0.041 0 0.064 0 32.658 0 59.132-26.474 59.132-59.132v0c0-32.693-26.503-59.196-59.196-59.196v0z" />
<glyph unicode="&#xe925;" glyph-name="menu" d="M48.8 830.2c-18.8-4.6-35.4-18.2-43.4-36-6.4-13.6-6.2-37.8 0.4-51 6.4-13 18-24.4 30.8-30.4l10.4-4.8h930l10.4 4.8c12.8 6 24.4 17.4 30.8 30.4 6.6 13.2 6.8 37.4 0.4 51-6 13.2-17.2 24.8-30.2 31.2l-11.4 5.6-461 0.4c-253.6 0-463.8-0.4-467.2-1.2zM46 508.2c-16.8-5.2-32-18-40.2-34.2-3.8-7.4-4.6-12.2-4.6-26 0-14.4 0.8-18.4 5.2-27 6.2-12 17.2-22.8 29.6-29.2l9-4.8h934l10 5.4c22.2 11.8 34 31 34 55.6s-11.8 43.8-34 55.6l-10 5.4-464 0.4c-255.2 0.2-466.2-0.4-469-1.2zM33.8 181.4c-46.4-24-44.2-87.8 4-111.8l9.2-4.6h930l11.4 5.6c13 6.4 24.2 18 30.2 31.2 6.4 13.6 6.2 37.8-0.4 51-6.4 13-18 24.4-30.8 30.4l-10.4 4.8h-930.6l-12.6-6.6z" />
<glyph unicode="&#xe964;" glyph-name="down-arrow" d="M1011.453 734.482c-16.73 16.816-43.875 16.816-60.605 0l-438.824-481.508-438.869 481.508c-16.73 16.816-43.876 16.816-60.607 0s-16.73-44.089 0-60.903l466.996-512.403c8.92-8.963 20.785-12.803 32.437-12.208 11.692-0.596 23.517 3.244 32.437 12.208l467.038 512.448c16.729 16.812 16.729 44.042-0.002 60.858z" />
</font>
</defs>
</svg>
