<svg width="162" height="57" viewBox="0 0 162 57" fill="none" xmlns="http://www.w3.org/2000/svg">
<path d="M162 28.5C162 44.2401 125.44 57 80.3415 57C35.2427 57 0 44.2401 0 28.5C0 12.7599 35.2427 0 80.3415 0C125.44 0 162 12.7599 162 28.5Z" fill="#359B52"/>
<path d="M158 28.5C158 31.5715 156.082 34.6667 152.218 37.6324C148.368 40.5872 142.734 43.2912 135.682 45.5801C121.591 50.1543 102.06 53 80.4427 53C58.8245 53 40.0801 50.1541 26.7764 45.5854C20.12 43.2995 14.8805 40.6009 11.3247 37.6556C7.76524 34.7074 6 31.6088 6 28.5C6 25.3912 7.76524 22.2926 11.3247 19.3444C14.8805 16.3991 20.12 13.7005 26.7764 11.4146C40.0801 6.84588 58.8245 4 80.4427 4C102.06 4 121.591 6.84569 135.682 11.4199C142.734 13.7088 148.368 16.4128 152.218 19.3676C156.082 22.3333 158 25.4285 158 28.5Z" fill="#359B52" stroke="white" stroke-width="2"/>
<path d="M43.2949 45H38.1533V10.6128H43.2949V45ZM70.0576 41.8579C70.0576 43.9526 69.0103 45 66.9155 45H56.1929C54.1567 45 53.1387 43.9526 53.1387 41.8579V13.7769C53.1387 11.6675 54.1567 10.6128 56.1929 10.6128H66.9155C69.0103 10.6128 70.0576 11.6675 70.0576 13.7769V21.8188H64.938V15.0293H58.2803V40.5835H64.938V33.3545H70.0576V41.8579ZM96.6006 41.8579C96.6006 43.9526 95.5532 45 93.4585 45H79.7256V10.6128H93.3706C95.4067 10.6128 96.4248 11.6675 96.4248 13.7769V22.6318C96.4248 23.8037 96.0586 24.7119 95.3262 25.3564C95.2236 25.4443 94.3301 26.0083 92.6455 27.0483C94.3887 28.1177 95.3115 28.7036 95.4141 28.8062C96.2051 29.4946 96.6006 30.4395 96.6006 31.6406V41.8579ZM91.3052 23.269V14.9414H84.8672V25.0269H88.8223L91.3052 23.269ZM91.437 40.6714V30.8716L88.9102 29.2017H84.8672V40.6714H91.437ZM123.693 45H118.595L117.562 38.4741H111.125L110.092 45H105.016V44.9121L111.674 10.5688H117.079L123.693 45ZM116.837 34.0576L114.333 18.5449L111.806 34.0576H116.837Z" fill="white"/>
</svg>
